<?xml version="1.0" encoding="UTF-8"?>
<svg id="Layer_1" xmlns="http://www.w3.org/2000/svg" version="1.1" xmlns:xlink="http://www.w3.org/1999/xlink" viewBox="0 0 166 153">
  <!-- Generator: Adobe Illustrator 30.4.0, SVG Export Plug-In . SVG Version: 2.1.4 Build 226)  -->
  <defs>
    <style>
      .st0, .st1 {
        fill: #fff;
      }

      .st2 {
        fill: url(#Gradiente_sem_nome);
      }

      .st3 {
        fill: #ee7f26;
      }

      .st1, .st4 {
        isolation: isolate;
        opacity: 1;
      }

      .st4 {
        fill: #b65c27;
      }
    </style>
    <linearGradient id="Gradiente_sem_nome" data-name="Gradiente sem nome" x1="54.2" y1="129.8" x2="120.6" y2="244.7" gradientTransform="translate(0 264) scale(1 -1)" gradientUnits="userSpaceOnUse">
      <stop offset="0" stop-color="#f04c25"/>
      <stop offset=".3" stop-color="#ef5525"/>
      <stop offset=".8" stop-color="#ef6e25"/>
      <stop offset="1" stop-color="#ef7826"/>
    </linearGradient>
  </defs>
  <path class="st2" d="M88.1,22.5c-1.9,1.7-3.5,4-5,5.8-3.5,4.3-4.6,5.4-8.1,9.7-4.3,5.2-8.5,10.4-12.8,15.6-3.9,4.8-7.8,9.5-11.7,14.3-3.5,4.3-7.3,8.4-10.8,12.8-2.3,2.9-4,6.2-5.2,9.7-1.2,3.5-1.9,7.2-2.1,11-.9,16.4,11.2,27.4,18.9,31.4,7.7,4,28.5,8.6,44.1-10.7,1.8-2.2,3.6-4.4,5.4-6.6,4-4.9,8.1-9.7,12.1-14.6,4.1-5,8.2-10,12.4-15,1.3-1.6,2.6-3.2,3.9-4.8,2.5-3.1,7.9-7.8,5-12.2-2.8-4.2-7-4.9-10-3-2.8,1.7-5.1,4.9-7.1,7.4-2,2.3-3.9,4.6-5.6,7.2-1.8,2.7-4.4,3.9-7.6,2.7-4.4-1.6-4.8-6.3-2.8-10,1.2-2.2,8.7-11.4,8.7-11.4l22.7-25.8s3.4-3.8.3-8.5c-3.1-4.7-8.8-4.2-11.1-2-2.3,2.2-13.3,14.9-13.3,14.9l-13.2,15.3s-1.8,2.2-5.9,1.9c-3.6-.2-7-5-5.3-8.4,1.3-2.5,3.5-4.7,5.3-6.7,1.6-1.9,3.3-3.7,4.9-5.5,2.3-2.7,2.4-2.1,4.4-5,1.3-1.9,2.8-4.9,1.5-7.1-1.1-1.9-2.6-3.7-4.6-4.4-3.1-1.1-5.6.1-7.7,2h0Z"/>
  <circle class="st0" cx="68.7" cy="101.2" r="16.9"/>
  <circle class="st4" cx="68.4" cy="101.3" r="23.9"/>
  <circle class="st3" cx="69.9" cy="97.5" r="20.1"/>
  <polygon class="st4" points="35.6 66.2 34.2 69.6 30.8 71 34.2 72.4 35.6 75.8 37 72.4 40.4 71 37.1 69.6 35.6 66.2"/>
  <polygon class="st4" points="42.2 119.8 40.8 123.3 37.4 124.7 40.8 126.1 42.2 129.5 43.7 126.1 47.1 124.7 43.7 123.3 42.2 119.8"/>
  <polygon class="st1" points="103.8 96.3 102.3 99.8 98.9 101.1 102.3 102.6 103.8 106 105.2 102.6 108.6 101.1 105.2 99.7 103.8 96.3"/>
  <path class="st1" d="M43.4,126.8l.3-.7,3.4-1.4-3.3-1.4-1.5-3.4-1.4,3.5-.5.2c.8,1,1.9,2.1,3.1,3.3Z"/>
</svg>